<svg width="174.59375px" height="246.69531860351563px" xmlns="http://www.w3.org/2000/svg" viewBox="162.703125 -48.347659301757815 174.59375 246.69531860351563" style="background: rgba(0, 0, 0, 0); --darkreader-inline-bgimage: initial; --darkreader-inline-bgcolor:rgba(0, 0, 0, 0);" data-darkreader-inline-bgimage="" data-darkreader-inline-bgcolor="" preserveAspectRatio="xMidYMid"><defs><linearGradient id="editing-gradient-gradient" x1="0" x2="1" y1="0.5" y2="0.5" gradientUnits="objectBoundingBox"><stop offset="0" stop-color="#f0f" data-darkreader-inline-stopcolor="" style="--darkreader-inline-stopcolor:#cc00cc;"></stop><stop offset="1" stop-color="#0ff" data-darkreader-inline-stopcolor="" style="--darkreader-inline-stopcolor:#00cccc;"></stop></linearGradient></defs><g><g transform="translate(201.33843612670898, 140.06500244140625)"><path d="M-15.59 19.73L-15.59 19.73L-15.59 19.73Q-8.29 18.88-3.72 9.44L-3.72 9.44L-3.72 9.44Q1.00-0.14 5.29-22.17L5.29-22.17L19.16-94.38L50.19-94.38L36.32-22.17L36.32-22.17Q31.03 5.86 22.31 16.87L22.31 16.87L22.31 16.87Q17.73 22.59 11.94 24.88L11.94 24.88L11.94 24.88Q6.15 27.17-0.14 27.17L-0.14 27.17L-0.14 27.17Q-6.44 27.17-10.51 24.88L-10.51 24.88L-10.51 24.88Q-14.59 22.59-15.59 19.73ZM87.52-7.87L87.52-7.87L87.52-7.87Q83.08 2.86 68.93 2.86L68.93 2.86L68.93 2.86Q61.78 2.86 57.20-2.15L57.20-2.15L57.20-2.15Q53.48-6.29 53.48-11.01L53.48-11.01L53.48-11.01Q53.48-21.74 58.49-45.19L58.49-45.19L68.93-100.10L97.96-102.96L84.08-30.60L84.08-30.60Q81.65-20.02 81.65-16.30L81.65-16.30L81.65-16.30Q81.65-8.15 87.52-7.87Z" fill="url(#editing-gradient-gradient)"></path></g></g><style>text {
  font-size: 64px;
  font-family: Arial Black;
  dominant-baseline: central;
  text-anchor: middle;
}</style><style class="darkreader darkreader--sync" media="screen"></style></svg>